<svg width="15" height="15" viewBox="0 0 10 10" fill="none" xmlns="http://www.w3.org/2000/svg">
<g id="PlusCircle" clip-path="url(#clip0_4115_58485)">
<path id="Vector" d="M5 9.375C3.83968 9.375 2.72688 8.91406 1.90641 8.09359C1.08594 7.27312 0.625 6.16032 0.625 5C0.625 3.83968 1.08594 2.72688 1.90641 1.90641C2.72688 1.08594 3.83968 0.625 5 0.625C6.16032 0.625 7.27312 1.08594 8.09359 1.90641C8.91406 2.72688 9.375 3.83968 9.375 5C9.375 6.16032 8.91406 7.27312 8.09359 8.09359C7.27312 8.91406 6.16032 9.375 5 9.375ZM5 10C6.32608 10 7.59785 9.47322 8.53553 8.53553C9.47322 7.59785 10 6.32608 10 5C10 3.67392 9.47322 2.40215 8.53553 1.46447C7.59785 0.526784 6.32608 0 5 0C3.67392 0 2.40215 0.526784 1.46447 1.46447C0.526784 2.40215 0 3.67392 0 5C0 6.32608 0.526784 7.59785 1.46447 8.53553C2.40215 9.47322 3.67392 10 5 10Z" fill="black" fill-opacity="0.5"/>
<path id="Vector_2" d="M5 2.5C5.08288 2.5 5.16237 2.53292 5.22097 2.59153C5.27958 2.65013 5.3125 2.72962 5.3125 2.8125V4.6875H7.1875C7.27038 4.6875 7.34987 4.72042 7.40847 4.77903C7.46708 4.83763 7.5 4.91712 7.5 5C7.5 5.08288 7.46708 5.16237 7.40847 5.22097C7.34987 5.27958 7.27038 5.3125 7.1875 5.3125H5.3125V7.1875C5.3125 7.27038 5.27958 7.34987 5.22097 7.40847C5.16237 7.46708 5.08288 7.5 5 7.5C4.91712 7.5 4.83763 7.46708 4.77903 7.40847C4.72042 7.34987 4.6875 7.27038 4.6875 7.1875V5.3125H2.8125C2.72962 5.3125 2.65013 5.27958 2.59153 5.22097C2.53292 5.16237 2.5 5.08288 2.5 5C2.5 4.91712 2.53292 4.83763 2.59153 4.77903C2.65013 4.72042 2.72962 4.6875 2.8125 4.6875H4.6875V2.8125C4.6875 2.72962 4.72042 2.65013 4.77903 2.59153C4.83763 2.53292 4.91712 2.5 5 2.5Z" fill="black" fill-opacity="0.5"/>
</g>
<defs>
<clipPath id="clip0_4115_58485">
<rect width="10" height="10" fill="white"/>
</clipPath>
</defs>
</svg>
